<svg xmlns="http://www.w3.org/2000/svg" viewBox="0 0 100 100">
  <rect width="100" height="100" rx="20" fill="#020202" />
  <path d="M50 20 L80 40 L80 70 L50 90 L20 70 L20 40 Z" fill="none" stroke="#ffffff" stroke-width="6" stroke-linejoin="round" />
  <circle cx="50" cy="20" r="8" fill="#ffffff" />
  <circle cx="80" cy="40" r="8" fill="#ffffff" />
  <circle cx="80" cy="70" r="8" fill="#ffffff" />
  <circle cx="50" cy="90" r="8" fill="#ffffff" />
  <circle cx="20" cy="70" r="8" fill="#ffffff" />
  <circle cx="20" cy="40" r="8" fill="#ffffff" />
  <circle cx="50" cy="55" r="12" fill="#ffffff" />
  <path d="M50 20 L50 55" stroke="#ffffff" stroke-width="4" />
  <path d="M80 40 L50 55" stroke="#ffffff" stroke-width="4" />
  <path d="M80 70 L50 55" stroke="#ffffff" stroke-width="4" />
  <path d="M50 90 L50 55" stroke="#ffffff" stroke-width="4" />
  <path d="M20 70 L50 55" stroke="#ffffff" stroke-width="4" />
  <path d="M20 40 L50 55" stroke="#ffffff" stroke-width="4" />
</svg>
